<svg id="Calque_1" data-name="Calque 1" xmlns="http://www.w3.org/2000/svg" viewBox="0 0 400 400"><defs><style>.cls-1{fill:#11adff;}.cls-2{fill:#707384;}.cls-3{fill:none;}.cls-4{fill:#c3b4fa;}.cls-5{fill:#a461ff;}.cls-6{fill:#464655;}.cls-7{fill:#5b5c6c;}.cls-8{fill:#508cd4;}.cls-9{fill:#54a1ff;}.cls-10{fill:#a0dcf0;}.cls-11{font-size:51.64px;fill:#8180e5;font-family:MuseoSansRounded-700, Museo Sans Rounded;font-weight:700;letter-spacing:-0.01em;}.cls-12{letter-spacing:0em;}.cls-13{fill:#a09bff;}.cls-14{fill:#fc657e;}.cls-15{fill:#70d6f9;}.cls-16{fill:#ffc109;}.cls-17{fill:#87d148;}</style></defs><circle class="cls-1" cx="200" cy="200" r="200"/><path class="cls-2" d="M260.92,139.57l-14-24.16L142,116.34,88.77,206.72l36,62.23a11.08,11.08,0,0,0-7.49,10.45v10l-16.11-27.92-.09-.11L89.28,241,69.56,206.88l8.37-14.18L132.57,100l117.18-1Z"/><path class="cls-3" d="M165.85,193.12a130.26,130.26,0,0,0-6.16,16c-1.05-.31-2.07-.63-3.09-1a45.53,45.53,0,0,1-14.55-7.73c-3.08-2.67-4.66-5.31-4.66-7.44,0-4.56,6.77-10.35,18.08-14.29,1.41-.51,2.85-.95,4.29-1.37A131.81,131.81,0,0,0,165.85,193.12Z"/><path class="cls-3" d="M176.28,174.06c-1.34,2.06-2.62,4.17-3.85,6.3s-2.38,4.28-3.52,6.46c-1.55-3.68-2.87-7.32-4-10.82C168.52,175.22,172.32,174.55,176.28,174.06Z"/><path class="cls-3" d="M176.37,212.28a114.06,114.06,0,0,1-11.49-1.86c1.09-3.56,2.45-7.27,4-11q1.71,3.3,3.55,6.49C173.71,208,175,210.17,176.37,212.28Z"/><path class="cls-3" d="M191,231.27c-.78.76-1.57,1.48-2.38,2.2a44.8,44.8,0,0,1-14,8.75,16.5,16.5,0,0,1-5.49,1.09,6.54,6.54,0,0,1-3.27-.74c-3.91-2.29-5.56-11.07-3.34-22.84.28-1.39.58-2.78.93-4.17a123.69,123.69,0,0,0,16.8,2.46A133.3,133.3,0,0,0,191,231.27Z"/><path class="cls-3" d="M190.79,155.09a126,126,0,0,0-10.62,13.18,130.23,130.23,0,0,0-16.66,2.59c-.32-1.27-.6-2.55-.86-3.84a55.14,55.14,0,0,1-1.11-10.54c0-6.6,1.58-11.26,4.24-12.81,4.17-2.43,13.42,1,23.15,9.68Q189.84,154.19,190.79,155.09Z"/><path class="cls-3" d="M201.89,167.78c-4.91-.23-9.85-.23-14.76,0,2.43-3.19,4.91-6.18,7.41-8.87C197.14,161.74,199.57,164.7,201.89,167.78Z"/><path class="cls-3" d="M202,218.41a107,107,0,0,1-7.32,9c-2.52-2.73-5.05-5.74-7.51-9q3.59.13,7.3.14C197,218.58,199.52,218.51,202,218.41Z"/><path class="cls-3" d="M217.25,193q-2.49,5.15-5.35,10.12t-6,9.68c-3.71.26-7.55.4-11.45.4s-7.67-.12-11.31-.35c-2.15-3.15-4.17-6.39-6.09-9.71s-3.69-6.67-5.33-10.07h0c1.65-3.43,3.41-6.79,5.31-10.08s3.91-6.51,6.05-9.63c3.71-.3,7.51-.44,11.35-.44s7.7.14,11.4.44c2.11,3.12,4.13,6.32,6,9.61S215.56,189.62,217.25,193Z"/><path class="cls-3" d="M224.07,176.07a112.85,112.85,0,0,1-4,10.75c-1.16-2.18-2.34-4.35-3.59-6.48s-2.48-4.2-3.8-6.26A115.32,115.32,0,0,1,224.07,176.07Z"/><path class="cls-3" d="M224.32,210.19a115.31,115.31,0,0,1-11.63,2c1.32-2.1,2.59-4.21,3.82-6.37s2.46-4.37,3.62-6.62A109.1,109.1,0,0,1,224.32,210.19Z"/><path class="cls-3" d="M227.36,156.92a58.45,58.45,0,0,1-1.28,11.51c-.18.83-.37,1.67-.55,2.48a127.66,127.66,0,0,0-16.71-2.64,122.79,122.79,0,0,0-10.55-13.18c.93-.9,1.9-1.78,2.88-2.64,9.22-8,17.82-11.21,21.76-8.94C225.71,145.13,227.36,150,227.36,156.92Z"/><path class="cls-3" d="M227.57,228.86a32.67,32.67,0,0,1-.51,6c-.74,4-2.23,6.69-4.08,7.76-3.94,2.29-12.35-.67-21.42-8.5-1-.88-2.08-1.86-3.15-2.85A126.33,126.33,0,0,0,208.89,218a122,122,0,0,0,16.89-2.62c.26,1,.49,2,.67,3A54,54,0,0,1,227.57,228.86Z"/><path class="cls-3" d="M231.23,239.88c2-5.65,2.22-13.59.46-22.55-.21-1.09-.46-2.21-.74-3.34.79-.23,1.55-.49,2.32-.74,7.9-2.62,14.3-6.14,18.42-10.1A173.94,173.94,0,0,1,231.23,239.88Z"/><path class="cls-3" d="M251.55,193c0,4.82-7.6,11.1-20,15.2-.7.23-1.39.46-2.11.67A122.76,122.76,0,0,0,223.16,193a123.1,123.1,0,0,0,6.08-15.62c1.29.37,2.52.77,3.73,1.19C244.51,182.56,251.55,188.44,251.55,193Z"/><path class="cls-3" d="M256.35,189.79c-2-6.35-10.1-12.28-21.65-16.26-1.34-.47-2.68-.88-4-1.28.23-.9.44-1.83.63-2.75,3-14.78,1-26.71-5.75-30.62-6.49-3.76-17.15.16-27.9,9.54-1.07.92-2.11,1.87-3.11,2.85-.69-.65-1.39-1.28-2.08-1.9-11.29-10-22.58-14.27-29.37-10.33-6.49,3.77-8.43,15-5.7,29,.28,1.39.58,2.75.93,4.14-1.6.44-3.15.93-4.61,1.44-13.21,4.63-21.65,11.86-21.65,19.36,0,7.74,9.06,15.52,22.83,20.22,1.11.4,2.25.74,3.38,1.07-.37,1.48-.69,3-1,4.47-2.6,13.76-.56,24.71,5.93,28.44,6.7,3.87,17.94-.09,28.9-9.68.86-.77,1.74-1.58,2.59-2.41,1.09,1.07,2.23,2.08,3.39,3.08,10.57,9.13,21,12.81,27.48,9.13a158.68,158.68,0,0,1-19.88,21H128.31a10.42,10.42,0,0,0-3.59.62L88.77,206.72,142,116.34,247,115.41l14,24.16,0,.05.72,1.22A134.29,134.29,0,0,1,256.35,189.79Z"/><path class="cls-3" d="M165.85,193.12a130.26,130.26,0,0,0-6.16,16c-1.05-.31-2.07-.63-3.09-1a45.53,45.53,0,0,1-14.55-7.73c-3.08-2.67-4.66-5.31-4.66-7.44,0-4.56,6.77-10.35,18.08-14.29,1.41-.51,2.85-.95,4.29-1.37A131.81,131.81,0,0,0,165.85,193.12Z"/><path class="cls-3" d="M176.28,174.06c-1.34,2.06-2.62,4.17-3.85,6.3s-2.38,4.28-3.52,6.46c-1.55-3.68-2.87-7.32-4-10.82C168.52,175.22,172.32,174.55,176.28,174.06Z"/><path class="cls-3" d="M176.37,212.28a114.06,114.06,0,0,1-11.49-1.86c1.09-3.56,2.45-7.27,4-11q1.71,3.3,3.55,6.49C173.71,208,175,210.17,176.37,212.28Z"/><path class="cls-3" d="M191,231.27c-.78.76-1.57,1.48-2.38,2.2a44.8,44.8,0,0,1-14,8.75,16.5,16.5,0,0,1-5.49,1.09,6.54,6.54,0,0,1-3.27-.74c-3.91-2.29-5.56-11.07-3.34-22.84.28-1.39.58-2.78.93-4.17a123.69,123.69,0,0,0,16.8,2.46A133.3,133.3,0,0,0,191,231.27Z"/><path class="cls-3" d="M190.79,155.09a126,126,0,0,0-10.62,13.18,130.23,130.23,0,0,0-16.66,2.59c-.32-1.27-.6-2.55-.86-3.84a55.14,55.14,0,0,1-1.11-10.54c0-6.6,1.58-11.26,4.24-12.81,4.17-2.43,13.42,1,23.15,9.68Q189.84,154.19,190.79,155.09Z"/><path class="cls-3" d="M201.89,167.78c-4.91-.23-9.85-.23-14.76,0,2.43-3.19,4.91-6.18,7.41-8.87C197.14,161.74,199.57,164.7,201.89,167.78Z"/><path class="cls-3" d="M202,218.41a107,107,0,0,1-7.32,9c-2.52-2.73-5.05-5.74-7.51-9q3.59.13,7.3.14C197,218.58,199.52,218.51,202,218.41Z"/><path class="cls-3" d="M217.25,193q-2.49,5.15-5.35,10.12t-6,9.68c-3.71.26-7.55.4-11.45.4s-7.67-.12-11.31-.35c-2.15-3.15-4.17-6.39-6.09-9.71s-3.69-6.67-5.33-10.07h0c1.65-3.43,3.41-6.79,5.31-10.08s3.91-6.51,6.05-9.63c3.71-.3,7.51-.44,11.35-.44s7.7.14,11.4.44c2.11,3.12,4.13,6.32,6,9.61S215.56,189.62,217.25,193Z"/><path class="cls-3" d="M224.07,176.07a112.85,112.85,0,0,1-4,10.75c-1.16-2.18-2.34-4.35-3.59-6.48s-2.48-4.2-3.8-6.26A115.32,115.32,0,0,1,224.07,176.07Z"/><path class="cls-3" d="M224.32,210.19a115.31,115.31,0,0,1-11.63,2c1.32-2.1,2.59-4.21,3.82-6.37s2.46-4.37,3.62-6.62A109.1,109.1,0,0,1,224.32,210.19Z"/><path class="cls-3" d="M227.36,156.92a58.45,58.45,0,0,1-1.28,11.51c-.18.83-.37,1.67-.55,2.48a127.66,127.66,0,0,0-16.71-2.64,122.79,122.79,0,0,0-10.55-13.18c.93-.9,1.9-1.78,2.88-2.64,9.22-8,17.82-11.21,21.76-8.94C225.71,145.13,227.36,150,227.36,156.92Z"/><path class="cls-3" d="M227.57,228.86a32.67,32.67,0,0,1-.51,6c-.74,4-2.23,6.69-4.08,7.76-3.94,2.29-12.35-.67-21.42-8.5-1-.88-2.08-1.86-3.15-2.85A126.33,126.33,0,0,0,208.89,218a122,122,0,0,0,16.89-2.62c.26,1,.49,2,.67,3A54,54,0,0,1,227.57,228.86Z"/><path class="cls-3" d="M231.23,239.88c2-5.65,2.22-13.59.46-22.55-.21-1.09-.46-2.21-.74-3.34.79-.23,1.55-.49,2.32-.74,7.9-2.62,14.3-6.14,18.42-10.1A173.94,173.94,0,0,1,231.23,239.88Z"/><path class="cls-3" d="M251.55,193c0,4.82-7.6,11.1-20,15.2-.7.23-1.39.46-2.11.67A122.76,122.76,0,0,0,223.16,193a123.1,123.1,0,0,0,6.08-15.62c1.29.37,2.52.77,3.73,1.19C244.51,182.56,251.55,188.44,251.55,193Z"/><path class="cls-3" d="M256.35,189.79c-2-6.35-10.1-12.28-21.65-16.26-1.34-.47-2.68-.88-4-1.28.23-.9.44-1.83.63-2.75,3-14.78,1-26.71-5.75-30.62-6.49-3.76-17.15.16-27.9,9.54-1.07.92-2.11,1.87-3.11,2.85-.69-.65-1.39-1.28-2.08-1.9-11.29-10-22.58-14.27-29.37-10.33-6.49,3.77-8.43,15-5.7,29,.28,1.39.58,2.75.93,4.14-1.6.44-3.15.93-4.61,1.44-13.21,4.63-21.65,11.86-21.65,19.36,0,7.74,9.06,15.52,22.83,20.22,1.11.4,2.25.74,3.38,1.07-.37,1.48-.69,3-1,4.47-2.6,13.76-.56,24.71,5.93,28.44,6.7,3.87,17.94-.09,28.9-9.68.86-.77,1.74-1.58,2.59-2.41,1.09,1.07,2.23,2.08,3.39,3.08,10.57,9.13,21,12.81,27.48,9.13a158.68,158.68,0,0,1-19.88,21H128.31a10.42,10.42,0,0,0-3.59.62L88.77,206.72,142,116.34,247,115.41l14,24.16,0,.05.72,1.22A134.29,134.29,0,0,1,256.35,189.79Z"/><path class="cls-4" d="M255.82,337.81H128.31a11.1,11.1,0,0,1-11.08-11.07V279.4A11.08,11.08,0,0,1,124.72,269a10.42,10.42,0,0,1,3.59-.62H256.7c.25.32.53.67.81,1.09,2,2.89,4.68,8.24,5.49,16.84C264.39,333,257.65,337.44,255.82,337.81Z"/><path class="cls-5" d="M330.44,188.42A126.12,126.12,0,0,1,272.5,294.59V281.65l45.36-76.95L256.72,98.87l-7,.07-117.18,1L77.93,192.7c-.07-1.41-.1-2.84-.1-4.28a126.31,126.31,0,0,1,252.61,0Z"/><path class="cls-6" d="M298.64,204.86l-36.57,62.05-.83,1.42H205.69a158.68,158.68,0,0,0,19.88-21l.07-.05c2.51-1.46,4.36-4,5.59-7.37a173.94,173.94,0,0,0,20.46-36.73c3.34-3.2,5.19-6.67,5.19-10.17a10.16,10.16,0,0,0-.53-3.19,134.29,134.29,0,0,0,5.31-48.95Z"/><path class="cls-7" d="M165.85,193.12a130.26,130.26,0,0,0-6.16,16c-1.05-.31-2.07-.63-3.09-1a45.53,45.53,0,0,1-14.55-7.73c-3.08-2.67-4.66-5.31-4.66-7.44,0-4.56,6.77-10.35,18.08-14.29,1.41-.51,2.85-.95,4.29-1.37A131.81,131.81,0,0,0,165.85,193.12Z"/><path class="cls-7" d="M176.28,174.06c-1.34,2.06-2.62,4.17-3.85,6.3s-2.38,4.28-3.52,6.46c-1.55-3.68-2.87-7.32-4-10.82C168.52,175.22,172.32,174.55,176.28,174.06Z"/><path class="cls-7" d="M176.37,212.28a114.06,114.06,0,0,1-11.49-1.86c1.09-3.56,2.45-7.27,4-11q1.71,3.3,3.55,6.49C173.71,208,175,210.17,176.37,212.28Z"/><path class="cls-7" d="M191,231.27c-.78.76-1.57,1.48-2.38,2.2a44.8,44.8,0,0,1-14,8.75,16.5,16.5,0,0,1-5.49,1.09,6.54,6.54,0,0,1-3.27-.74c-3.91-2.29-5.56-11.07-3.34-22.84.28-1.39.58-2.78.93-4.17a123.69,123.69,0,0,0,16.8,2.46A133.3,133.3,0,0,0,191,231.27Z"/><path class="cls-7" d="M190.79,155.09a126,126,0,0,0-10.62,13.18,130.23,130.23,0,0,0-16.66,2.59c-.32-1.27-.6-2.55-.86-3.84a55.14,55.14,0,0,1-1.11-10.54c0-6.6,1.58-11.26,4.24-12.81,4.17-2.43,13.42,1,23.15,9.68Q189.84,154.19,190.79,155.09Z"/><path class="cls-7" d="M201.89,167.78c-4.91-.23-9.85-.23-14.76,0,2.43-3.19,4.91-6.18,7.41-8.87C197.14,161.74,199.57,164.7,201.89,167.78Z"/><path class="cls-7" d="M202,218.41a107,107,0,0,1-7.32,9c-2.52-2.73-5.05-5.74-7.51-9q3.59.13,7.3.14C197,218.58,199.52,218.51,202,218.41Z"/><path class="cls-7" d="M217.25,193q-2.49,5.15-5.35,10.12t-6,9.68c-3.71.26-7.55.4-11.45.4s-7.67-.12-11.31-.35c-2.15-3.15-4.17-6.39-6.09-9.71s-3.69-6.67-5.33-10.07h0c1.65-3.43,3.41-6.79,5.31-10.08s3.91-6.51,6.05-9.63c3.71-.3,7.51-.44,11.35-.44s7.7.14,11.4.44c2.11,3.12,4.13,6.32,6,9.61S215.56,189.62,217.25,193Z"/><path class="cls-7" d="M224.07,176.07a112.85,112.85,0,0,1-4,10.75c-1.16-2.18-2.34-4.35-3.59-6.48s-2.48-4.2-3.8-6.26A115.32,115.32,0,0,1,224.07,176.07Z"/><path class="cls-7" d="M224.32,210.19a115.31,115.31,0,0,1-11.63,2c1.32-2.1,2.59-4.21,3.82-6.37s2.46-4.37,3.62-6.62A109.1,109.1,0,0,1,224.32,210.19Z"/><path class="cls-7" d="M227.36,156.92a58.45,58.45,0,0,1-1.28,11.51c-.18.83-.37,1.67-.55,2.48a127.66,127.66,0,0,0-16.71-2.64,122.79,122.79,0,0,0-10.55-13.18c.93-.9,1.9-1.78,2.88-2.64,9.22-8,17.82-11.21,21.76-8.94C225.71,145.13,227.36,150,227.36,156.92Z"/><path class="cls-7" d="M227.57,228.86a32.67,32.67,0,0,1-.51,6c-.74,4-2.23,6.69-4.08,7.76-3.94,2.29-12.35-.67-21.42-8.5-1-.88-2.08-1.86-3.15-2.85A126.33,126.33,0,0,0,208.89,218a122,122,0,0,0,16.89-2.62c.26,1,.49,2,.67,3A54,54,0,0,1,227.57,228.86Z"/><path class="cls-7" d="M231.23,239.88c2-5.65,2.22-13.59.46-22.55-.21-1.09-.46-2.21-.74-3.34.79-.23,1.55-.49,2.32-.74,7.9-2.62,14.3-6.14,18.42-10.1A173.94,173.94,0,0,1,231.23,239.88Z"/><path class="cls-7" d="M251.55,193c0,4.82-7.6,11.1-20,15.2-.7.23-1.39.46-2.11.67A122.76,122.76,0,0,0,223.16,193a123.1,123.1,0,0,0,6.08-15.62c1.29.37,2.52.77,3.73,1.19C244.51,182.56,251.55,188.44,251.55,193Z"/><path class="cls-7" d="M256.35,189.79c-2-6.35-10.1-12.28-21.65-16.26-1.34-.47-2.68-.88-4-1.28.23-.9.44-1.83.63-2.75,3-14.78,1-26.71-5.75-30.62-6.49-3.76-17.15.16-27.9,9.54-1.07.92-2.11,1.87-3.11,2.85-.69-.65-1.39-1.28-2.08-1.9-11.29-10-22.58-14.27-29.37-10.33-6.49,3.77-8.43,15-5.7,29,.28,1.39.58,2.75.93,4.14-1.6.44-3.15.93-4.61,1.44-13.21,4.63-21.65,11.86-21.65,19.36,0,7.74,9.06,15.52,22.83,20.22,1.11.4,2.25.74,3.38,1.07-.37,1.48-.69,3-1,4.47-2.6,13.76-.56,24.71,5.93,28.44,6.7,3.87,17.94-.09,28.9-9.68.86-.77,1.74-1.58,2.59-2.41,1.09,1.07,2.23,2.08,3.39,3.08,10.57,9.13,21,12.81,27.48,9.13a158.68,158.68,0,0,1-19.88,21H128.31a10.42,10.42,0,0,0-3.59.62L88.77,206.72,142,116.34,247,115.41l14,24.16,0,.05.72,1.22A134.29,134.29,0,0,1,256.35,189.79Z"/><path class="cls-8" d="M101,261.38A127.05,127.05,0,0,1,89.28,241Z"/><path class="cls-9" d="M256.35,189.79c-2-6.35-10.1-12.28-21.65-16.26-1.34-.47-2.68-.88-4-1.28.23-.9.44-1.83.63-2.75,3-14.78,1-26.71-5.75-30.62-6.49-3.76-17.15.16-27.9,9.54-1.07.92-2.11,1.87-3.11,2.85-.69-.65-1.39-1.28-2.08-1.9-11.29-10-22.58-14.27-29.37-10.33-6.49,3.77-8.43,15-5.7,29,.28,1.39.58,2.75.93,4.14-1.6.44-3.15.93-4.61,1.44-13.21,4.63-21.65,11.86-21.65,19.36,0,7.74,9.06,15.52,22.83,20.22,1.11.4,2.25.74,3.38,1.07-.37,1.48-.69,3-1,4.47-2.6,13.76-.56,24.71,5.93,28.44,6.7,3.87,17.94-.09,28.9-9.68.86-.77,1.74-1.58,2.59-2.41,1.09,1.07,2.23,2.08,3.39,3.08,10.57,9.13,21,12.81,27.48,9.13l.07-.05c2.51-1.46,4.36-4,5.59-7.37,2-5.65,2.22-13.59.46-22.55-.21-1.09-.46-2.21-.74-3.34.79-.23,1.55-.49,2.32-.74,7.9-2.62,14.3-6.14,18.42-10.1,3.34-3.2,5.19-6.67,5.19-10.17A10.16,10.16,0,0,0,256.35,189.79Zm-55.2-37.34c9.22-8,17.82-11.21,21.76-8.94,2.8,1.62,4.45,6.51,4.45,13.41a58.45,58.45,0,0,1-1.28,11.51c-.18.83-.37,1.67-.55,2.48a127.66,127.66,0,0,0-16.71-2.64,122.79,122.79,0,0,0-10.55-13.18C199.2,154.19,200.17,153.31,201.15,152.45Zm-28.69,53.41c1.25,2.18,2.55,4.31,3.91,6.42a114.06,114.06,0,0,1-11.49-1.86c1.09-3.56,2.45-7.27,4-11Q170.62,202.67,172.46,205.86ZM165,176c3.57-.78,7.37-1.45,11.33-1.94-1.34,2.06-2.62,4.17-3.85,6.3s-2.38,4.28-3.52,6.46C167.36,183.14,166,179.5,165,176Zm6.79,17.1h0c1.65-3.43,3.41-6.79,5.31-10.08s3.91-6.51,6.05-9.63c3.71-.3,7.51-.44,11.35-.44s7.7.14,11.4.44c2.11,3.12,4.13,6.32,6,9.61s3.68,6.62,5.37,10q-2.49,5.15-5.35,10.12t-6,9.68c-3.71.26-7.55.4-11.45.4s-7.67-.12-11.31-.35c-2.15-3.15-4.17-6.39-6.09-9.71S173.38,196.5,171.74,193.1Zm44.77,12.71c1.25-2.17,2.46-4.37,3.62-6.62a109.1,109.1,0,0,1,4.19,11,115.31,115.31,0,0,1-11.63,2C214,210.08,215.28,208,216.51,205.81Zm3.57-19c-1.16-2.18-2.34-4.35-3.59-6.48s-2.48-4.2-3.8-6.26a115.32,115.32,0,0,1,11.38,2A112.85,112.85,0,0,1,220.08,186.82Zm-25.54-27.91c2.6,2.83,5,5.79,7.35,8.87-4.91-.23-9.85-.23-14.76,0C189.56,164.59,192,161.6,194.54,158.91Zm-28.76-15.24c4.17-2.43,13.42,1,23.15,9.68q.91.84,1.86,1.74a126,126,0,0,0-10.62,13.18,130.23,130.23,0,0,0-16.66,2.59c-.32-1.27-.6-2.55-.86-3.84a55.14,55.14,0,0,1-1.11-10.54C161.54,149.88,163.12,145.22,165.78,143.67Zm-6.09,65.46c-1.05-.31-2.07-.63-3.09-1a45.53,45.53,0,0,1-14.55-7.73c-3.08-2.67-4.66-5.31-4.66-7.44,0-4.56,6.77-10.35,18.08-14.29,1.41-.51,2.85-.95,4.29-1.37a131.81,131.81,0,0,0,6.09,15.8A130.26,130.26,0,0,0,159.69,209.13Zm28.9,24.34a44.8,44.8,0,0,1-14,8.75,16.5,16.5,0,0,1-5.49,1.09,6.54,6.54,0,0,1-3.27-.74c-3.91-2.29-5.56-11.07-3.34-22.84.28-1.39.58-2.78.93-4.17a123.69,123.69,0,0,0,16.8,2.46A133.3,133.3,0,0,0,191,231.27C190.19,232,189.4,232.75,188.59,233.47Zm6.09-6.05c-2.52-2.73-5.05-5.74-7.51-9q3.59.13,7.3.14c2.55,0,5.05-.07,7.53-.17A107,107,0,0,1,194.68,227.42Zm28.3,15.2c-3.94,2.29-12.35-.67-21.42-8.5-1-.88-2.08-1.86-3.15-2.85A126.33,126.33,0,0,0,208.89,218a122,122,0,0,0,16.89-2.62c.26,1,.49,2,.67,3a54,54,0,0,1,1.12,10.49,32.67,32.67,0,0,1-.51,6C226.32,238.87,224.83,241.55,223,242.62Zm8.62-34.44c-.7.23-1.39.46-2.11.67A122.76,122.76,0,0,0,223.16,193a123.1,123.1,0,0,0,6.08-15.62c1.29.37,2.52.77,3.73,1.19,11.54,4,18.58,9.86,18.58,14.4C251.55,197.8,244,204.08,231.6,208.18Z"/><path class="cls-10" d="M194.47,204.14a11.18,11.18,0,1,0-11.14-11.21v0a11.14,11.14,0,0,0,11.13,11.17Z"/><text class="cls-11" transform="translate(128.66 321.41)">R<tspan class="cls-12" x="31.86" y="0">eact</tspan></text><path class="cls-7" d="M272.5,281.65V279.4a11.12,11.12,0,0,0-10.33-11c-.26,0-.49,0-.74,0h-.19l.83-1.42,36.57-62.05-37-64-.72-1.22,0-.05L249.75,98.94l7-.07L317.86,204.7Z"/><path class="cls-13" d="M272.5,279.4v47.34a11.1,11.1,0,0,1-11.07,11.07h-5.61c1.83-.37,8.57-4.84,7.18-51.55-.81-8.6-3.45-13.95-5.49-16.84-.28-.42-.56-.77-.81-1.09h4.73c.25,0,.48,0,.74,0A11.12,11.12,0,0,1,272.5,279.4Z"/><path class="cls-14" d="M285.25,81.87A10.91,10.91,0,0,0,279,85.7a9.9,9.9,0,0,0-2,4.84c-.86-5.77-5.06-7.88-8.23-8.67a12.68,12.68,0,0,0,3.38-1.32,9.74,9.74,0,0,0,4.85-7.34C277.88,79,282.07,81.09,285.25,81.87Z"/><path class="cls-14" d="M104.48,274.12a7.27,7.27,0,0,0-5.89,6.21,7.29,7.29,0,0,0-5.9-6.21,7.3,7.3,0,0,0,5.9-6.22A7.28,7.28,0,0,0,104.48,274.12Z"/><path class="cls-15" d="M117.36,322.76c-3.66.9-8.51,3.36-9.5,10-1-6.66-5.84-9.12-9.51-10,3.67-.9,8.52-3.36,9.51-10C108.85,319.4,113.7,321.86,117.36,322.76Z"/><path class="cls-16" d="M289.88,295a7.28,7.28,0,0,0-5.89,6.22,7.3,7.3,0,0,0-5.9-6.22,7.28,7.28,0,0,0,5.9-6.21A7.26,7.26,0,0,0,289.88,295Z"/><path class="cls-17" d="M97.53,128.2a7.27,7.27,0,0,0-5.89,6.21,7.29,7.29,0,0,0-5.9-6.21,7.3,7.3,0,0,0,5.9-6.22A7.28,7.28,0,0,0,97.53,128.2Z"/></svg>