<?xml version="1.0" encoding="utf-8"?>
<!-- Generator: Adobe Illustrator 25.2.0, SVG Export Plug-In . SVG Version: 6.00 Build 0)  -->
<svg version="1.1" xmlns="http://www.w3.org/2000/svg" xmlns:xlink="http://www.w3.org/1999/xlink" x="0px" y="0px"
	 viewBox="0 0 400 400" style="enable-background:new 0 0 400 400;" xml:space="preserve">
<style type="text/css">
	.st0{fill:#11ADFF;}
	.st1{fill:#A461FF;}
	.st2{fill:#CED3D8;}
	.st3{fill:#508CD4;}
	.st4{fill:none;}
	.st5{fill:#4377AA;}
	.st6{fill:#5DB2C9;}
	.st7{fill:#C7D7E5;}
	.st8{fill:#AEBBC4;}
	.st9{fill:#FC657E;}
	.st10{fill:#EDF4FC;}
	.st11{fill:#70D6F9;}
	.st12{fill:#7E4FC9;}
	.st13{fill:none;stroke:#000000;stroke-width:0.75;stroke-miterlimit:10;}
	.st14{fill:#FFC109;}
	.st15{fill:#87D148;}
</style>
<g id="Calque_1">
	<path class="st0" d="M200,0C89.5,0,0,89.5,0,200s89.5,200,200,200s200-89.5,200-200S310.5,0,200,0z M84.1,333.1
		c-0.5-3.5-3.1-4.8-5.1-5.3c1.9-0.5,4.5-1.8,5.1-5.3c0.5,3.5,3.1,4.9,5,5.3C87.2,328.3,84.6,329.6,84.1,333.1z M108,350
		c-1.1-7.7-6.7-10.5-10.9-11.5c4.2-1,9.8-3.9,10.9-11.5c1.1,7.7,6.7,10.5,10.9,11.5C114.7,339.5,109.2,342.3,108,350z M307.8,289.1
		v10.1c0,9.2-7.4,16.6-16.6,16.6h-15.5c-7.5,4.5-15.3,8.5-23.6,11.6c1.1,3.6,4.1,5.1,6.4,5.7c-2.6,0.6-6.1,2.4-6.8,7.2
		c-0.7-4.8-4.2-6.5-6.8-7.2c2.3-0.5,5.1-1.9,6.3-5.4h0c-13.9,5.3-28.9,8.5-44.6,9.2v5.5H228c1.5,0,2.8,0.6,3.8,1.6
		c1,1,1.6,2.3,1.6,3.8c0,2.9-2.4,5.3-5.3,5.3h-93.2c-1.5,0-2.8-0.6-3.8-1.6c-1-1-1.6-2.3-1.6-3.8c0-2.9,2.4-5.3,5.3-5.3H156v-12.1
		c-11.2-3.6-21.8-8.5-31.7-14.5H71.5c-9.2,0-16.6-7.4-16.6-16.6V140.7c0-9.2,7.4-16.6,16.6-16.6h0.2c1.9-3.6,3.9-7,6.1-10.4
		c-1.4-2.6-3.9-3.8-5.9-4.2c2.6-0.6,6.1-2.4,6.8-7.1c0.4,2.6,1.6,4.3,3.1,5.5c0,0,0,0,0,0c3.2-4.5,6.7-8.8,10.3-12.9v-11
		c0-2.7,2.3-5,5-5h12c24.9-20,56.4-32,90.8-32c31.1,0,59.9,9.8,83.5,26.4c2.6-1.5,4.9-4,5.6-8.4c1,6.6,5.8,9,9.4,10
		c-2.4,0.6-5.2,1.8-7.2,4.4c32.8,26.6,53.8,67.2,53.8,112.7C345.1,229.3,331,263.4,307.8,289.1z"/>
	<path class="st0" d="M89.1,327.8c-2,0.5-4.5,1.8-5,5.3c-0.5-3.5-3.1-4.8-5.1-5.3c1.9-0.5,4.5-1.8,5.1-5.3
		C84.6,326,87.2,327.3,89.1,327.8z"/>
	<path class="st0" d="M119,338.4c-4.2,1-9.8,3.9-10.9,11.5c-1.1-7.7-6.7-10.5-10.9-11.5c4.2-1,9.8-3.9,10.9-11.5
		C109.2,334.6,114.7,337.4,119,338.4z"/>
</g>
<g id="Calque_2">
	<g>
		<path class="st1" d="M182.7,289.2c-4.4,0-8,3.6-8,8s3.6,8,8,8c4.4,0,8-3.6,8-8S187.1,289.2,182.7,289.2z M124.3,315.8
			c9.9,6,20.5,10.9,31.7,14.5v-14.5H124.3z M206.8,315.8V337c15.7-0.7,30.6-3.9,44.6-9.2h0c0.2-0.1,0.5-0.2,0.8-0.3
			c8.2-3.2,16.1-7.1,23.6-11.6H206.8z M283.5,73.4c-1.3,0.7-2.7,1.2-3.9,1.5c3.6,0.9,8.5,3.3,9.5,10c0.3-2.3,1.1-4.1,2.3-5.6
			C288.8,77.2,286.2,75.3,283.5,73.4z M200.6,156.1h-38.5c-1.8,0-3.4,1.5-3.4,3.4v17.2c0,1.8,1.5,3.3,3.4,3.3h38.5
			c1.8,0,3.3-1.5,3.3-3.3v-17.2C204,157.6,202.5,156.1,200.6,156.1z M147.4,156.1h-38.5c-1.8,0-3.4,1.5-3.4,3.4v17.2
			c0,1.8,1.5,3.3,3.4,3.3h38.5c1.8,0,3.4-1.5,3.4-3.3v-17.2C150.8,157.6,149.2,156.1,147.4,156.1z M81.8,107.8
			C81.8,107.8,81.8,107.8,81.8,107.8c-1.4,2-2.7,3.9-4,5.9c0,0,0,0,0,0c-2.2,3.4-4.2,6.8-6.1,10.4h20.4V94.9
			C88.5,99,85,103.3,81.8,107.8z"/>
		<path class="st1" d="M307.8,140.7c0-9.2-7.4-16.6-16.6-16.6h-20.7V83.9c0-2.7-2.3-5-5-5H109.2c24.9-20,56.4-32,90.8-32
			c31.1,0,59.9,9.8,83.5,26.4c-1.3,0.7-2.7,1.2-3.9,1.5c3.6,0.9,8.5,3.3,9.5,10c0.3-2.3,1.1-4.1,2.3-5.6
			c32.8,26.6,53.8,67.2,53.8,112.7c0,37.3-14.1,71.4-37.3,97.1V140.7z"/>
		<path class="st2" d="M307.8,278.5v20.7c0,9.2-7.4,16.6-16.6,16.6h-89c0,0,14.9-14,31.3-37.3H307.8z"/>
		<path class="st3" d="M92.2,124.1v12.1h-24v142.3H54.9V140.7c0-9.2,7.4-16.6,16.6-16.6H92.2z"/>
		<circle class="st4" cx="182.7" cy="297.2" r="8"/>
		<path class="st5" d="M294.5,265.2v13.3h-60.9c2.9-4.2,5.9-8.6,8.9-13.3H294.5z"/>
		<rect x="68.2" y="265.2" class="st1" width="25.1" height="13.3"/>
		<path class="st6" d="M294.5,136.2v129h-52.1c3.1-5,6.3-10.4,9.3-16h13.8c2.7,0,5-2.3,5-5v-41.7c5.6-20.6,8-43,4.6-66.3H294.5z"/>
		<circle class="st7" cx="182.7" cy="297.2" r="8"/>
		<path class="st8" d="M206.8,315.8v26.6h-9c0,0,7-10.7,0-26.6H206.8z"/>
		<path class="st7" d="M197.7,342.4H156v-26.6h41.8C204.8,331.8,197.7,342.4,197.7,342.4z"/>
		<path class="st8" d="M233.3,347.8c0,2.9-2.4,5.3-5.3,5.3h-30.2c27-1.3,21-10.6,21-10.6h9.2c1.5,0,2.8,0.6,3.8,1.6
			C232.7,345,233.3,346.3,233.3,347.8z"/>
		<path class="st7" d="M197.7,353.1h-63c-1.5,0-2.8-0.6-3.8-1.6c-1-1-1.6-2.3-1.6-3.8c0-2.9,2.4-5.3,5.3-5.3h83.9
			C218.7,342.4,224.7,351.8,197.7,353.1z"/>
		<path class="st5" d="M270.5,83.9v19.4h-4c-3.1-8.1-7-16.2-11.8-24.4h10.8C268.3,78.9,270.5,81.1,270.5,83.9z"/>
		<path class="st3" d="M266.6,103.3h-150V78.9h138.3C259.6,87,263.5,95.2,266.6,103.3z"/>
		<path class="st9" d="M116.5,78.9v24.4H92.2V83.9c0-2.7,2.3-5,5-5H116.5z"/>
		<path class="st7" d="M270.5,103.3v11.8c-1.1-3.9-2.5-7.9-4-11.8H270.5z"/>
		<path class="st7" d="M270.5,202.6v41.7c0,2.7-2.3,5-5,5h-13.8C259.2,235.2,266,219.5,270.5,202.6z"/>
		<path class="st10" d="M266.6,103.3H92.2v141c0,2.7,2.3,5,5,5h154.5c7.5-14,14.3-29.7,18.8-46.7v-87.5
			C269.4,111.2,268.1,107.2,266.6,103.3z M150.7,176.7c0,1.8-1.5,3.4-3.4,3.4h-38.5c-1.8,0-3.4-1.5-3.4-3.4v-17.3
			c0-1.8,1.5-3.4,3.4-3.4h38.5c1.8,0,3.4,1.5,3.4,3.4V176.7z M204,176.7c0,1.8-1.5,3.4-3.4,3.4h-38.5c-1.8,0-3.4-1.5-3.4-3.4v-17.3
			c0-1.8,1.5-3.4,3.4-3.4h38.5c1.8,0,3.4,1.5,3.4,3.4V176.7z M257.2,176.7c0,1.8-1.5,3.4-3.4,3.4h-38.5c-1.8,0-3.4-1.5-3.4-3.4
			v-17.3c0-1.8,1.5-3.4,3.4-3.4h38.5c1.8,0,3.4,1.5,3.4,3.4V176.7z M257.2,144.7c0,1.8-1.5,3.4-3.4,3.4h-145c-1.8,0-3.4-1.5-3.4-3.4
			v-25.2c0-1.8,1.5-3.4,3.4-3.4h145c1.8,0,3.4,1.5,3.4,3.4V144.7z"/>
		<path class="st10" d="M150.7,159.4v17.3c0,1.8-1.5,3.4-3.4,3.4h-38.5c-1.8,0-3.4-1.5-3.4-3.4v-17.3c0-1.8,1.5-3.4,3.4-3.4h38.5
			C149.2,156.1,150.7,157.6,150.7,159.4z"/>
		<path class="st10" d="M204,159.4v17.3c0,1.8-1.5,3.4-3.4,3.4h-38.5c-1.8,0-3.4-1.5-3.4-3.4v-17.3c0-1.8,1.5-3.4,3.4-3.4h38.5
			C202.5,156.1,204,157.6,204,159.4z"/>
		<path class="st1" d="M257.2,119.5v25.2c0,1.8-1.5,3.4-3.4,3.4h-145c-1.8,0-3.4-1.5-3.4-3.4v-25.2c0-1.8,1.5-3.4,3.4-3.4h145
			C255.7,116.1,257.2,117.7,257.2,119.5z"/>
		<path class="st9" d="M150.7,159.4v17.3c0,1.8-1.5,3.4-3.4,3.4h-38.5c-1.8,0-3.4-1.5-3.4-3.4v-17.3c0-1.8,1.5-3.4,3.4-3.4h38.5
			C149.2,156.1,150.7,157.6,150.7,159.4z"/>
		<path class="st11" d="M204,159.4v17.3c0,1.8-1.5,3.4-3.4,3.4h-38.5c-1.8,0-3.4-1.5-3.4-3.4v-17.3c0-1.8,1.5-3.4,3.4-3.4h38.5
			C202.5,156.1,204,157.6,204,159.4z"/>
		<path class="st12" d="M257.2,159.4v17.3c0,1.8-1.5,3.4-3.4,3.4h-38.5c-1.8,0-3.4-1.5-3.4-3.4v-17.3c0-1.8,1.5-3.4,3.4-3.4h38.5
			C255.7,156.1,257.2,157.6,257.2,159.4z"/>
		<line class="st13" x1="112.1" y1="190.7" x2="141.4" y2="190.7"/>
		<line class="st13" x1="166.7" y1="190.7" x2="196" y2="190.7"/>
		<line class="st13" x1="220" y1="190.7" x2="249.3" y2="190.7"/>
		<line class="st13" x1="112.1" y1="204" x2="141.4" y2="204"/>
		<line class="st13" x1="166.7" y1="204" x2="196" y2="204"/>
		<line class="st13" x1="220" y1="204" x2="249.3" y2="204"/>
		<line class="st13" x1="112.1" y1="217.3" x2="141.4" y2="217.3"/>
		<line class="st13" x1="166.7" y1="217.3" x2="196" y2="217.3"/>
		<line class="st13" x1="220" y1="217.3" x2="249.3" y2="217.3"/>
		<line class="st13" x1="112.1" y1="230.6" x2="141.4" y2="230.6"/>
		<line class="st13" x1="166.7" y1="230.6" x2="196" y2="230.6"/>
		<line class="st13" x1="220" y1="230.6" x2="249.3" y2="230.6"/>
		<line class="st13" x1="128.1" y1="92.5" x2="234.6" y2="92.5"/>
		<line class="st13" x1="243.9" y1="92.2" x2="258.9" y2="92.2"/>
		<path class="st10" d="M294.5,278.5L294.5,278.5z"/>
		<path class="st5" d="M307.8,140.7v137.8h-13.3V136.2h-19.4c-0.6-4-1.3-8.1-2.2-12.1h18.3C300.4,124.1,307.8,131.6,307.8,140.7z"/>
		<line class="st4" x1="295.8" y1="265.2" x2="294.5" y2="265.2"/>
		<line class="st4" x1="68.2" y1="265.2" x2="66.9" y2="265.2"/>
		<path class="st9" d="M298.5,74.9c-2.4,0.6-5.2,1.8-7.2,4.4c-1.1,1.4-1.9,3.2-2.3,5.6c-1-6.6-5.8-9-9.5-10c1.2-0.3,2.6-0.8,3.9-1.5
			c2.6-1.5,4.9-4,5.6-8.4C290,71.6,294.9,74,298.5,74.9z"/>
		<path class="st9" d="M89.1,327.8c-2,0.5-4.5,1.8-5,5.3c-0.5-3.5-3.1-4.8-5.1-5.3c1.9-0.5,4.5-1.8,5.1-5.3
			C84.6,326,87.2,327.3,89.1,327.8z"/>
		<path class="st11" d="M119,338.4c-4.2,1-9.8,3.9-10.9,11.5c-1.1-7.7-6.7-10.5-10.9-11.5c4.2-1,9.8-3.9,10.9-11.5
			C109.2,334.6,114.7,337.4,119,338.4z"/>
		<path class="st14" d="M258.6,333.1c-2.6,0.6-6.1,2.4-6.8,7.2c-0.7-4.8-4.2-6.5-6.8-7.2c2.3-0.5,5.1-1.9,6.3-5.4
			c0.2-0.5,0.3-1.1,0.4-1.8c0.1,0.5,0.2,1,0.3,1.5C253.3,331.1,256.2,332.5,258.6,333.1z"/>
		<path class="st15" d="M85.5,109.5c-2.6,0.7-6.1,2.4-6.8,7.2c-0.2-1.1-0.5-2.1-0.9-2.9c-1.4-2.6-3.9-3.8-5.9-4.2
			c2.6-0.6,6.1-2.4,6.8-7.1c0.4,2.6,1.6,4.3,3.1,5.5C83,108.7,84.4,109.2,85.5,109.5z"/>
		<path class="st11" d="M251.7,249.3c-3,5.6-6.1,10.9-9.3,16H68.2v-129h24v108c0,2.7,2.3,5,5,5H251.7z"/>
		<path class="st3" d="M242.4,265.2c-3,4.7-5.9,9.2-8.9,13.3H93.4v-13.3H242.4z"/>
		<path class="st10" d="M54.9,278.5v20.7c0,9.2,7.4,16.6,16.6,16.6h130.7c0,0,14.9-14,31.3-37.3H54.9z M182.7,305.2
			c-4.4,0-8-3.6-8-8s3.6-8,8-8c4.4,0,8,3.6,8,8S187.1,305.2,182.7,305.2z"/>
		<path class="st3" d="M275.2,136.2h-4.6v-12.1h2.4C273.9,128.2,274.6,132.2,275.2,136.2z"/>
		<path class="st11" d="M270.5,202.6v-66.3h4.6C278.5,159.6,276.1,182,270.5,202.6z"/>
	</g>
</g>
<g id="Calque_3">
</g>
</svg>
